<svg aria-hidden="true" style="position: absolute; width: 0; height: 0; overflow: hidden;" version="1.1" xmlns="http://www.w3.org/2000/svg" xmlns:xlink="http://www.w3.org/1999/xlink">
<defs>
<symbol id="icon-antenna" viewBox="0 0 32 32">
<path d="M30.775 22.098l-8.443-8.503 0.937-4.617c0.242 0.091 0.498 0.142 0.759 0.146h0.005c0.006 0 0.014 0 0.022 0 1.192 0 2.158-0.966 2.158-2.158s-0.966-2.158-2.158-2.158c-1.192 0-2.158 0.966-2.158 2.158 0 0.259 0.046 0.507 0.129 0.737l-0.005-0.015-4.955 0.603-8.091-8.133c-0.097-0.098-0.231-0.159-0.379-0.16h-0c-0.137 0-0.274 0.055-0.37 0.155l-1.513 1.504c-0.21 0.21-0.21 0.549 0 0.754l0.814 0.823c-1.143 2.062-1.816 4.522-1.816 7.14 0 4.106 1.656 7.824 4.336 10.525l-0.001-0.001c0.046 0.046 0.091 0.073 0.146 0.101-0.032 0.183-0.050 0.366-0.050 0.549v6.185h-6.4c0 0 0 0 0 0-1.473 0-2.667 1.193-2.67 2.665v1.065c0 0.297 0.238 0.535 0.535 0.535h24.535c0.293 0 0.53-0.238 0.53-0.535v-1.065c-0.003-1.471-1.194-2.663-2.665-2.665h-6.4v-2.743c0.915 0.2 1.966 0.315 3.043 0.315 2.581 0 5.008-0.659 7.123-1.817l-0.077 0.039 0.818 0.823c0.096 0.101 0.233 0.16 0.375 0.16 0.137 0 0.274-0.059 0.375-0.155l1.509-1.509c0.21-0.206 0.21-0.544 0-0.75zM23.278 6.235c0.193-0.192 0.458-0.311 0.752-0.311 0.588 0 1.065 0.477 1.065 1.065s-0.476 1.064-1.063 1.065h-0c-0.001 0-0.001 0-0.002 0-0.588 0-1.065-0.477-1.065-1.065 0-0.297 0.122-0.566 0.318-0.759l0-0zM22.025 9.737l-0.599 2.944-1.175-1.179 1.774-1.765zM21.417 8.837l-1.92 1.906-1.486-1.49 3.406-0.416zM24.005 28.8c0.884 0 1.6 0.716 1.6 1.6v0 0.535h-23.465v-0.535c0-0.884 0.716-1.6 1.6-1.6v0h20.261zM16.539 26.665v1.070h-5.339v-1.070h5.335zM11.2 25.6v-4.055c0-1.294 1.198-2.345 2.665-2.345 1.472 0 2.67 1.051 2.67 2.345v4.055h-5.335zM17.6 23.904v-2.359c0-1.879-1.673-3.41-3.735-3.41-0.018-0-0.040-0-0.062-0-1.351 0-2.537 0.705-3.211 1.768l-0.009 0.016c-2.359-2.481-3.809-5.845-3.809-9.548 0-2.314 0.567-4.496 1.569-6.415l-0.036 0.077 18.606 18.711c-1.822 0.946-3.978 1.501-6.264 1.501-1.080 0-2.132-0.124-3.141-0.358l0.093 0.018zM28.891 23.218l-0.754-0.754-20.302-20.425 0.754-0.75 21.061 21.179-0.759 0.75z"></path>
<path d="M13.874 20.265c-0.001 0-0.003 0-0.005 0-0.884 0-1.6 0.716-1.6 1.6 0 0.882 0.714 1.597 1.595 1.6h0.005c0.001 0 0.001 0 0.002 0 0.884 0 1.6-0.716 1.6-1.6s-0.715-1.599-1.598-1.6h-0zM14.249 22.245c-0.097 0.096-0.23 0.155-0.377 0.155-0.295 0-0.535-0.239-0.535-0.535s0.238-0.533 0.532-0.535h0c0.294 0.001 0.533 0.24 0.533 0.535 0 0.148-0.060 0.283-0.158 0.379l-0 0z"></path>
</symbol>
<symbol id="icon-astronaut" viewBox="0 0 32 32">
<path d="M31.973 4.526c-0.059-0.192-0.229-0.334-0.43-0.366l-1.911-0.274-0.855-1.737c-0.178-0.361-0.777-0.361-0.955 0l-0.85 1.737-1.911 0.274c-0.262 0.038-0.46 0.261-0.46 0.53 0 0.151 0.063 0.287 0.163 0.385l0 0 1.385 1.344-0.325 1.902c-0.005 0.026-0.007 0.056-0.007 0.087 0 0.295 0.239 0.535 0.535 0.535 0.089 0 0.174-0.022 0.248-0.061l-0.003 0.001 1.71-0.896 1.705 0.896c0.072 0.039 0.158 0.062 0.25 0.062 0.295 0 0.535-0.239 0.535-0.535 0-0.032-0.003-0.063-0.008-0.093l0 0.003-0.329-1.902 1.385-1.349c0.146-0.137 0.197-0.352 0.137-0.549zM29.513 5.851c-0.128 0.123-0.183 0.297-0.155 0.471l0.192 1.115-1.001-0.526c-0.072-0.039-0.158-0.062-0.249-0.062s-0.177 0.023-0.252 0.064l0.003-0.001-1.001 0.526 0.192-1.115c0.032-0.174-0.027-0.347-0.151-0.471l-0.814-0.791 1.12-0.16c0.174-0.027 0.325-0.137 0.402-0.293l0.503-1.015 0.498 1.015c0.078 0.155 0.229 0.265 0.402 0.293l1.12 0.16-0.809 0.791zM26.135 20.526h-1.070v1.065h1.070v-1.070zM26.135 22.656h-1.070v1.065h1.070v-1.065zM27.2 21.591h-1.065v1.065h1.065v-1.065zM25.065 21.591h-1.065v1.065h1.065v-1.065zM22.4 26.391h-1.065v1.065h1.065v-1.065zM22.4 28.526h-1.065v1.065h1.065v-1.070zM23.465 27.456h-1.065v1.065h1.065v-1.065zM21.335 27.456h-1.070v1.065h1.070v-1.065zM16 24.256h-1.065v1.065h1.065v-1.065zM16 26.391h-1.065v1.065h1.065v-1.065zM17.065 25.326h-1.065v1.065h1.065v-1.070zM14.935 25.326h-1.070v1.065h1.070v-1.070zM5.865 6.126h-1.065v1.065h1.065v-1.070zM5.865 8.256h-1.065v1.065h1.065v-1.065zM6.935 7.191h-1.070v1.065h1.070v-1.065zM4.8 7.191h-1.065v1.065h1.065v-1.065z"></path>
<path d="M24.713 14.158c-0.28-0.376-0.699-0.636-1.179-0.703l-0.009-0.001c-0.076-0.012-0.164-0.018-0.253-0.018-0.411 0-0.789 0.139-1.090 0.373l0.004-0.003-1.248 0.96-1.902 1.417-1.358-0.539c2.423-1.088 4.114-3.506 4.114-6.322 0-3.822-3.122-6.93-6.962-6.93s-6.958 3.109-6.958 6.93c0 1.39 0.411 2.674 1.12 3.762l-2.77-0.027-0.023 0.005c-0.055 0-0.105 0.014-0.155 0.032l-0.037 0.014-0.023 0.005-3.232 1.6-1.893 0.91c-0.506 0.32-0.837 0.877-0.837 1.511 0 0.985 0.798 1.783 1.783 1.783 0.303 0 0.588-0.075 0.838-0.209l-0.010 0.005 1.385-0.736 2.263-1.17 1.358-0.009-6.779 6.757c-0.306 0.299-0.496 0.716-0.496 1.177s0.19 0.878 0.495 1.177l0 0c0.302 0.302 0.719 0.488 1.179 0.488s0.878-0.187 1.179-0.488v0l1.307-1.312 1.742-1.298 0.901 0.896-1.76 1.755-1.339 1.33c-0.307 0.299-0.498 0.717-0.498 1.179s0.191 0.88 0.498 1.179l0 0c0.302 0.302 0.719 0.488 1.179 0.488s0.878-0.187 1.179-0.488v0l3.483-3.47 1.015-1.006h-0.005l0.018-0.018 5.166-5.659 3.474 0.498c0.019 0.003 0.041 0.004 0.063 0.004 0.071 0 0.139-0.015 0.201-0.042l-0.003 0.001 0.050-0.023c0.018-0.009 0.041-0.014 0.059-0.027l3.214-2.13 0.027-0.032 0.041-0.023 1.271-1.193c0.347-0.326 0.562-0.788 0.562-1.3 0-0.401-0.132-0.771-0.355-1.068l0.003 0.005zM2.13 17.769c-0.109 0.071-0.243 0.113-0.386 0.113-0.396 0-0.716-0.321-0.716-0.716 0-0.252 0.13-0.474 0.327-0.602l0.003-0.002 1.317-0.631 0.315 0.923 0.133 0.389-0.992 0.526zM5.627 15.941l-1.55 0.8-0.256-0.741-0.183-0.535 2.030-1.006-0.041 1.486zM20.727 9.326c0 0.919-0.219 1.783-0.599 2.56l-4.183-1.897c-0.042-0.576-0.341-1.074-0.78-1.386l-0.006-0.004 1.463-4.859c2.377 0.754 4.105 2.971 4.105 5.586zM8.937 9.326c0.011-3.243 2.643-5.868 5.888-5.868 0.266 0 0.528 0.018 0.784 0.052l-0.030-0.003-1.435 4.754-0.055-0.005c0 0 0 0-0 0-1.032 0-1.869 0.834-1.874 1.865v0.001c0.012 1.026 0.847 1.852 1.874 1.852 0.687 0 1.287-0.369 1.614-0.92l0.005-0.009 3.858 1.755c-1.085 1.458-2.804 2.393-4.741 2.393-3.245 0-5.878-2.624-5.893-5.866v-0.001zM14.894 10.126c0 0.446-0.361 0.807-0.807 0.807s-0.807-0.361-0.807-0.807v0c0-0.439 0.366-0.8 0.809-0.8s0.805 0.361 0.805 0.8zM2.469 25.147c-0.233 0.233-0.617 0.229-0.855 0-0.109-0.108-0.177-0.257-0.177-0.423s0.068-0.315 0.177-0.423l0.96-0.96 0.855 0.85-0.965 0.951zM5.682 28.878c-0.233 0.238-0.617 0.238-0.855 0-0.108-0.108-0.174-0.256-0.174-0.421s0.067-0.313 0.174-0.421v0l0.96-0.96 0.407 0.402 0.448 0.448-0.96 0.951zM9.166 25.413l-1.769 1.76-0.85-0.85 1.765-1.751c0.041-0.046 0.064-0.091 0.091-0.137l0.023-0.046c0.018-0.037 0.023-0.082 0.027-0.123 0-0.027 0.014-0.046 0.014-0.073 0-0.037-0.014-0.073-0.018-0.105l-0.018-0.096c-0.023-0.050-0.055-0.091-0.091-0.137l-0.027-0.041-1.609-1.6c-0.014-0.018-0.037-0.023-0.055-0.037-0.032-0.023-0.059-0.046-0.091-0.059-0.026-0.012-0.056-0.023-0.088-0.031l-0.003-0.001c-0.029-0.009-0.063-0.015-0.099-0.018l-0.002-0h-0.096l-0.105 0.023c-0.032 0.009-0.064 0.027-0.091 0.046-0.023 0.009-0.046 0.014-0.064 0.027l-1.774 1.326-0.901-0.901 2.4-2.386 4.361 4.293-0.928 0.914zM15.982 18.395h-0.046c-0.007-0-0.016-0.001-0.025-0.001-0.137 0-0.262 0.052-0.355 0.138l0-0-0.041 0.032-4.699 5.143-4.325-4.251 2.834-2.821c0.098-0.097 0.158-0.231 0.158-0.379 0-0.295-0.239-0.535-0.535-0.535-0.002 0-0.005 0-0.007 0h0l-2.217 0.014 0.027-1.609 3.104 0.027c1.263 1.296 3.026 2.099 4.977 2.099 0.455 0 0.899-0.044 1.33-0.127l-0.044 0.007c0.037 0.032 0.078 0.064 0.128 0.087l2.409 0.96 0.151 0.759 0.183 0.882-3.008-0.425zM20.023 18.574l-0.311-1.559 1.445-1.079 0.379 0.503 0.567 0.754-2.080 1.381zM23.781 15.739l-0.841 0.786-0.928-1.234 0.827-0.64c0.122-0.093 0.276-0.149 0.443-0.149 0.037 0 0.074 0.003 0.11 0.008l-0.004-0.001c0.352 0.050 0.62 0.349 0.62 0.711 0 0.206-0.087 0.392-0.226 0.523l-0 0z"></path>
<path d="M13.6 18.546l-2.139-2.135c-0.097-0.096-0.23-0.156-0.377-0.156s-0.28 0.059-0.377 0.156l0-0-2.144 2.135c-0.096 0.097-0.156 0.23-0.156 0.377s0.059 0.28 0.156 0.377l-0-0 2.149 2.135c0.096 0.095 0.229 0.153 0.375 0.153s0.278-0.059 0.375-0.153l-0 0 2.139-2.135c0.096-0.097 0.156-0.23 0.156-0.377s-0.059-0.28-0.156-0.377l0 0zM11.086 20.302l-1.394-1.376 1.385-1.381 1.39 1.381-1.39 1.381zM17.166 5.074l-0.261 1.033c0.073 0.018 1.737 0.453 1.737 2.149h1.070c0-2.016-1.669-2.967-2.546-3.186zM19.712 9.326h-1.070v1.065h1.070v-1.070z"></path>
</symbol>
<symbol id="icon-brand" viewBox="0 0 57 32">
<path d="M14.661 24.149c0.123 0.149 0.187 0.341 0.181 0.533 0.001 0.014 0.001 0.030 0.001 0.047 0 0.252-0.109 0.479-0.283 0.635l-0.001 0.001c-0.24 0.181-0.533 0.267-0.832 0.251h-1.461v-3.413h1.429c0.283-0.021 0.565 0.059 0.795 0.224 0.171 0.144 0.279 0.358 0.279 0.597 0 0.015-0 0.030-0.001 0.045l0-0.002c0.011 0.187-0.053 0.373-0.165 0.523-0.112 0.133-0.267 0.229-0.437 0.267 0.197 0.037 0.373 0.139 0.496 0.293zM12.944 23.632h0.613c0.139 0.011 0.277-0.032 0.389-0.112 0.083-0.075 0.135-0.182 0.135-0.302 0-0.012-0.001-0.024-0.002-0.036l0 0.002c0-0.007 0.001-0.015 0.001-0.023 0-0.122-0.051-0.231-0.134-0.308l-0-0c-0.097-0.074-0.221-0.119-0.354-0.119-0.016 0-0.032 0.001-0.048 0.002l0.002-0h-0.603v0.896zM14.011 24.944c0.086-0.078 0.14-0.191 0.14-0.316 0-0.011-0-0.022-0.001-0.032l0 0.001c0.001-0.009 0.001-0.019 0.001-0.029 0-0.128-0.056-0.243-0.145-0.323l-0-0c-0.123-0.091-0.267-0.133-0.416-0.123h-0.64v0.939h0.645c0.149 0.011 0.293-0.032 0.411-0.117zM17.584 25.616l-0.795-1.333h-0.299v1.333h-0.688v-3.413h1.301c0.32-0.027 0.645 0.080 0.901 0.288 0.192 0.197 0.31 0.466 0.31 0.763 0 0.245-0.080 0.471-0.216 0.653l0.002-0.003c-0.16 0.187-0.379 0.309-0.619 0.347l0.848 1.365h-0.747zM16.491 23.819h0.56c0.389 0 0.587-0.176 0.587-0.517 0-0.007 0-0.014 0-0.022 0-0.141-0.057-0.269-0.15-0.362v0c-0.123-0.107-0.277-0.155-0.437-0.139h-0.571v1.040zM21.328 24.928h-1.365l-0.24 0.693h-0.72l1.253-3.381h0.779l1.248 3.376h-0.72l-0.229-0.688zM21.147 24.411l-0.501-1.44-0.496 1.44h0.997zM26.016 25.616h-0.683l-1.525-2.32v2.32h-0.677v-3.413h0.677l1.525 2.331v-2.336h0.683v3.413zM29.893 24.8c-0.139 0.256-0.357 0.469-0.613 0.603-0.299 0.149-0.624 0.224-0.96 0.213h-1.205v-3.413h1.205c0.336-0.011 0.661 0.064 0.96 0.213 0.256 0.128 0.475 0.336 0.613 0.587 0.135 0.262 0.214 0.571 0.214 0.899s-0.079 0.637-0.219 0.91l0.005-0.011zM29.115 24.715c0.186-0.217 0.3-0.502 0.3-0.813s-0.113-0.596-0.301-0.815l0.001 0.002c-0.207-0.183-0.481-0.296-0.781-0.296-0.026 0-0.051 0.001-0.076 0.002l0.003-0h-0.469v2.213h0.475c0.309 0.021 0.613-0.085 0.853-0.293zM21.755 3.2s8.773 3.328 8.587 8.139v8.139s-8.768-3.328-8.587-8.139v-8.139zM38.16 17.573c1.653-1.147 3.573-1.856 5.573-2.064v-2.549c-2.346 0.926-4.258 2.529-5.546 4.566l-0.028 0.047z"></path>
<path d="M37.163 18.341c1.37-2.732 3.676-4.826 6.489-5.887l0.082-0.027v-7.339s-12.496 4.736-12.229 11.589v11.589s0.555-0.213 1.429-0.608c0-0.373 0-0.747 0.043-1.12 0.273-3.294 1.833-6.179 4.17-8.184l0.016-0.014z"></path>
<path d="M35.973 22.645c0.069-0.8 0.213-1.6 0.437-2.373-1.597 1.881-2.587 4.321-2.645 6.99l-0 0.012c1.016-0.491 1.802-0.915 2.57-1.367l-0.17 0.092c-0.148-0.709-0.233-1.524-0.233-2.358 0-0.351 0.015-0.698 0.044-1.041l-0.003 0.045zM36.469 22.688c-0.080 1.013-0.027 2.037 0.16 3.040 3.413-2.053 7.248-5.221 7.099-9.051v-0.336c-2.543 0.295-4.784 1.403-6.5 3.054l0.004-0.003c-0.393 0.966-0.664 2.086-0.76 3.255l-0.003 0.041z"></path>
</symbol>
<symbol id="icon-clock" viewBox="0 0 32 32">
<path d="M31.296 15.301c-0.001-8.452-6.853-15.303-15.305-15.303s-15.305 6.852-15.305 15.305c0 6.79 4.422 12.548 10.543 14.55l0.108 0.031c0.057 0.017 0.123 0.027 0.191 0.027 0.125 0 0.242-0.034 0.343-0.093l-0.003 0.002c0.137-0.082 0.233-0.206 0.283-0.357l3.863-12.251c1.048-0.009 1.895-0.861 1.895-1.911 0-1.055-0.856-1.911-1.911-1.911-0.3 0-0.584 0.069-0.836 0.192l0.011-0.005-5.102-5.106c-0.112-0.098-0.259-0.158-0.421-0.158-0.353 0-0.64 0.287-0.64 0.64 0 0.16 0.059 0.307 0.156 0.419l-0.001-0.001 5.106 5.111c-0.121 0.241-0.192 0.526-0.192 0.826 0 0.601 0.283 1.136 0.723 1.479l0.004 0.003-3.685 11.671c-5.408-2.035-9.186-7.165-9.186-13.177 0-7.756 6.287-14.043 14.043-14.043s14.043 6.287 14.043 14.043c0 5.688-3.381 10.586-8.243 12.793l-0.088 0.036-0.398-1.874c-0.066-0.289-0.32-0.502-0.625-0.502-0.162 0-0.31 0.060-0.423 0.159l0.001-0.001-3.84 3.429c-0.127 0.117-0.207 0.285-0.207 0.471 0 0.282 0.182 0.521 0.435 0.607l0.005 0.001 4.901 1.563c0.057 0.019 0.123 0.029 0.192 0.029 0.353 0 0.64-0.287 0.64-0.64 0-0.046-0.005-0.091-0.014-0.134l0.001 0.004-0.393-1.838c5.529-2.374 9.33-7.772 9.33-14.057 0-0.011 0-0.022-0-0.034v0.002zM15.991 14.661c0.353 0 0.64 0.287 0.64 0.64s-0.287 0.64-0.64 0.64v0c-0.353 0-0.64-0.287-0.64-0.64s0.287-0.64 0.64-0.64v0zM18.094 29.527l2.185-1.947 0.599 2.839-2.789-0.891z"></path>
<path d="M15.355 3.186v1.275c-0.001 0.016-0.002 0.035-0.002 0.054 0 0.353 0.287 0.64 0.64 0.64s0.64-0.287 0.64-0.64c0-0.019-0.001-0.038-0.002-0.056l0 0.002v-1.28c0-0.353-0.287-0.64-0.64-0.64s-0.64 0.287-0.64 0.64v0zM3.877 14.665c-0.329 0.029-0.586 0.303-0.586 0.638s0.257 0.609 0.584 0.638l0.002 0h1.275c0.353 0 0.64-0.287 0.64-0.64s-0.287-0.64-0.64-0.64h-1.28zM28.11 15.941c0.353 0 0.64-0.287 0.64-0.64s-0.287-0.64-0.64-0.64h-1.28c-0.353 0-0.64 0.287-0.64 0.64s0.287 0.64 0.64 0.64h1.28z"></path>
</symbol>
<symbol id="icon-company" viewBox="0 0 57 32">
<path d="M26.656 3.696h0.069c0.139 0 0.283 0.016 0.427 0.027 0.64 0.048 1.269 0.144 1.888 0.288v-1.531c-0.82-0.217-1.763-0.343-2.734-0.347h-0.231c-1.317 0-2.635 0.176-3.909 0.507-1.575 0.398-2.959 0.976-4.229 1.726l0.074-0.040v15.147c2.105-1.161 4.591-1.904 7.235-2.051l0.045-0.002h0.043c0.187-0.011 0.373-0.016 0.571-0.016v-1.547c-2.091 0.022-4.088 0.392-5.947 1.053l0.128-0.040-0.539 0.181v-11.808l0.229-0.107c1.843-0.895 4.005-1.43 6.29-1.456l0.009-0h0.245l0.336 0.011z"></path>
<path d="M30.459 5.296c-0.003 0-0.006 0-0.009 0-1.048 0-2.068-0.117-3.049-0.337l0.092 0.017v14.965c0.971 0.24 1.973 0.357 2.971 0.352 1.317-0.005 2.635-0.176 3.909-0.501 1.577-0.4 2.962-0.979 4.234-1.731l-0.074 0.040v-14.875c-1.139 0.633-2.457 1.163-3.845 1.521l-0.118 0.026c-1.344 0.341-2.72 0.517-4.107 0.523zM36.448 5.557l0.533-0.181v11.813l-0.229 0.107c-1.863 0.909-4.054 1.44-6.369 1.44-0.341 0-0.68-0.012-1.015-0.034l0.045 0.002-0.373-0.032v-12.149l0.432 0.027c0.287 0.016 0.622 0.025 0.959 0.025 2.154 0 4.22-0.373 6.139-1.057l-0.128 0.040zM19.061 24.645c-0.145-0.148-0.348-0.241-0.572-0.241-0.011 0-0.022 0-0.032 0.001l0.002-0c-0.117 0-0.235 0.021-0.347 0.064-0.3 0.12-0.508 0.408-0.508 0.745 0 0.014 0 0.028 0.001 0.041l-0-0.002v2.027c0 0.139 0.021 0.283 0.080 0.411 0.053 0.107 0.117 0.197 0.203 0.272 0.080 0.069 0.176 0.117 0.277 0.144s0.203 0.043 0.304 0.043c0.464-0.009 0.837-0.388 0.837-0.853 0-0 0-0 0-0v0-0.224h-0.533v0.176c0.005 0.064 0 0.128-0.027 0.181-0.017 0.046-0.042 0.085-0.075 0.117v0c-0.060 0.046-0.136 0.073-0.218 0.075h-0c-0.011 0.002-0.023 0.002-0.036 0.002-0.088 0-0.166-0.043-0.215-0.108l-0-0.001c-0.047-0.073-0.075-0.162-0.075-0.257 0-0.005 0-0.010 0-0.015l-0 0.001v-1.888c0-0.107 0.021-0.208 0.069-0.299 0.048-0.075 0.131-0.124 0.226-0.124 0.011 0 0.021 0.001 0.032 0.002l-0.001-0c0.003-0 0.006-0 0.009-0 0.092 0 0.173 0.044 0.225 0.111l0 0.001c0.057 0.072 0.091 0.163 0.091 0.263 0 0.001 0 0.003-0 0.004v-0 0.181h0.523v-0.208c0-0.002 0-0.005 0-0.007 0-0.243-0.091-0.465-0.241-0.634l0.001 0.001zM22.203 24.624c-0.162-0.136-0.374-0.219-0.604-0.219-0.112 0-0.22 0.020-0.32 0.055l0.007-0.002c-0.107 0.037-0.197 0.091-0.283 0.16-0.085 0.085-0.16 0.181-0.203 0.288-0.053 0.123-0.080 0.256-0.075 0.395v1.936c-0.005 0.139 0.021 0.272 0.075 0.4 0.048 0.107 0.117 0.197 0.203 0.267 0.085 0.080 0.176 0.139 0.283 0.176 0.094 0.035 0.202 0.055 0.315 0.055s0.221-0.020 0.321-0.057l-0.006 0.002c0.329-0.114 0.562-0.421 0.562-0.783 0-0.019-0.001-0.038-0.002-0.057l0 0.003v-1.941c0.001-0.011 0.001-0.024 0.001-0.038 0-0.252-0.107-0.48-0.278-0.639l-0-0zM21.957 27.237c0.001 0.009 0.001 0.020 0.001 0.031 0 0.099-0.041 0.188-0.108 0.251l-0 0c-0.067 0.057-0.155 0.091-0.251 0.091s-0.183-0.035-0.251-0.092l0.001 0c-0.067-0.063-0.108-0.153-0.108-0.252 0-0.011 0-0.022 0.002-0.033l-0 0.001v-1.936c-0.001-0.009-0.001-0.019-0.001-0.029 0-0.1 0.041-0.189 0.108-0.253l0-0c0.067-0.057 0.155-0.091 0.251-0.091s0.183 0.035 0.251 0.092l-0.001-0c0.067 0.063 0.108 0.153 0.108 0.252 0 0.011-0 0.022-0.002 0.033l0-0.001v1.936zM26.331 28.107v-3.68h-0.512l-0.667 1.947h-0.011l-0.672-1.947h-0.501v3.675h0.523v-2.24h0.011l0.512 1.584h0.267l0.517-1.579h0.005v2.235h0.528zM29.312 24.693c-0.080-0.096-0.181-0.16-0.299-0.203-0.109-0.037-0.234-0.059-0.365-0.059-0.005 0-0.010 0-0.015 0h-0.778v3.675h0.523v-1.44h0.267c0.165 0.011 0.325-0.021 0.475-0.096 0.212-0.132 0.361-0.347 0.405-0.597l0.001-0.005c0.021-0.124 0.032-0.266 0.032-0.411 0-0.187-0.020-0.369-0.057-0.545l0.003 0.017c-0.036-0.134-0.103-0.249-0.192-0.342l0 0zM29.045 25.813c-0.005 0.064-0.021 0.128-0.053 0.187-0.027 0.053-0.075 0.107-0.133 0.128-0.068 0.034-0.148 0.053-0.233 0.053-0.004 0-0.009-0-0.013-0h-0.239v-1.253h0.267c0.085 0 0.16 0.011 0.24 0.048 0.053 0.027 0.096 0.075 0.123 0.133 0.026 0.060 0.042 0.129 0.043 0.202v0.502zM31.787 24.432h-0.427l-0.8 3.675h0.523l0.155-0.789h0.709l0.16 0.789h0.517l-0.827-3.675zM31.307 26.816l0.256-1.333h0.011l0.256 1.333h-0.523zM35.173 26.645h-0.011l-0.789-2.213h-0.501v3.675h0.523v-2.208h0.011l0.795 2.208h0.491v-3.68h-0.523v2.213zM38.373 24.432l-0.427 1.461h-0.005l-0.427-1.461h-0.549l0.72 2.123v1.547h0.523v-1.547l0.72-2.123h-0.555zM17.6 29.141h0.251v0.709h0.171v-0.709h0.251v-0.144h-0.672v0.144zM19.723 28.997l-0.331 0.853h0.181l0.069-0.192h0.341l0.069 0.192h0.187l-0.336-0.853h-0.181zM19.696 29.515l0.112-0.32 0.117 0.32h-0.229zM21.813 29.536h0.203v0.107c-0.055 0.046-0.125 0.073-0.202 0.075h-0c-0.004 0-0.009 0-0.014 0-0.067 0-0.128-0.031-0.167-0.080l-0-0c-0.040-0.057-0.065-0.128-0.065-0.205 0-0.007 0-0.013 0.001-0.020l-0 0.001c0-0.187 0.080-0.283 0.245-0.283 0.005-0 0.011-0.001 0.017-0.001 0.083 0 0.154 0.056 0.175 0.133l0 0.001 0.171-0.032c-0.037-0.165-0.16-0.251-0.363-0.251-0.005-0-0.010-0-0.016-0-0.109 0-0.208 0.041-0.283 0.107l0-0c-0.077 0.076-0.124 0.18-0.124 0.296 0 0.012 0 0.024 0.002 0.036l-0-0.002c0 0.117 0.032 0.235 0.107 0.32 0.076 0.079 0.183 0.129 0.301 0.129 0.009 0 0.017-0 0.026-0.001l-0.001 0c0.133 0 0.267-0.048 0.363-0.139v-0.336h-0.373v0.144zM23.957 28.997h-0.171v0.853h0.597v-0.144h-0.427v-0.709zM25.771 28.997h-0.176v0.853h0.176v-0.853zM27.541 29.568l-0.352-0.571h-0.165v0.853h0.16v-0.555l0.341 0.555h0.171v-0.853h-0.16v0.571zM29.141 29.477h0.427v-0.144h-0.427v-0.192h0.453v-0.144h-0.629v0.853h0.651v-0.144h-0.48v-0.229zM33.019 29.333h-0.336v-0.336h-0.171v0.853h0.171v-0.373h0.336v0.373h0.171v-0.853h-0.171v0.336zM34.629 29.477h0.427v-0.144h-0.427v-0.192h0.459v-0.144h-0.629v0.853h0.645v-0.144h-0.475v-0.229zM36.811 29.477c0.149-0.027 0.224-0.107 0.224-0.24 0.001-0.007 0.001-0.016 0.001-0.024 0-0.066-0.032-0.125-0.081-0.162l-0.001-0c-0.064-0.034-0.141-0.054-0.222-0.054-0.010 0-0.020 0-0.030 0.001l0.001-0h-0.363v0.853h0.171v-0.357h0.037c0.032 0 0.069 0.005 0.107 0.021 0.021 0.016 0.043 0.037 0.053 0.064l0.192 0.267h0.203l-0.107-0.16c-0.043-0.085-0.107-0.16-0.187-0.213zM36.64 29.36h-0.128v-0.213h0.133c0.064-0.005 0.123 0 0.176 0.016 0.025 0.020 0.041 0.050 0.041 0.084 0 0.020-0.005 0.039-0.015 0.055l0-0c-0.008 0.015-0.019 0.028-0.032 0.037l-0 0c-0.043 0.014-0.093 0.022-0.145 0.022-0.011 0-0.021-0-0.032-0.001l0.001 0zM38.453 29.477h0.427v-0.144h-0.427v-0.192h0.464v-0.144h-0.629v0.853h0.645v-0.144h-0.48v-0.229z"></path>
</symbol>
<symbol id="icon-companyDwa" viewBox="0 0 57 32">
<path d="M20.453 27.093c0 0 0 0 0 0 0.016 0 0.031 0.006 0.042 0.016l-0-0 0.107 0.112c-0.085 0.096-0.192 0.171-0.309 0.219-0.139 0.053-0.288 0.085-0.437 0.080-0.139 0-0.283-0.021-0.411-0.075-0.238-0.095-0.422-0.282-0.51-0.517l-0.002-0.006c-0.046-0.12-0.073-0.259-0.073-0.404 0-0.15 0.029-0.294 0.081-0.425l-0.003 0.008c0.103-0.244 0.296-0.432 0.537-0.526l0.007-0.002c0.121-0.046 0.262-0.072 0.408-0.072s0.287 0.026 0.416 0.075l-0.008-0.003c0.107 0.043 0.213 0.107 0.299 0.181l-0.096 0.123c-0.006 0.008-0.013 0.015-0.021 0.021l-0 0c-0.009 0.007-0.020 0.011-0.032 0.011-0.002 0-0.003-0-0.005-0l0 0c-0.014-0.002-0.027-0.008-0.038-0.016l0 0-0.053-0.032-0.069-0.043c-0.101-0.054-0.22-0.086-0.347-0.086-0.009 0-0.018 0-0.027 0l0.001-0c-0.107 0-0.213 0.016-0.309 0.053-0.091 0.037-0.171 0.091-0.24 0.16-0.064 0.069-0.117 0.149-0.155 0.24-0.037 0.107-0.053 0.213-0.053 0.325s0.016 0.224 0.053 0.331c0.037 0.091 0.085 0.171 0.155 0.245 0.064 0.064 0.139 0.117 0.229 0.149 0.085 0.037 0.181 0.053 0.283 0.053 0.053 0 0.107 0 0.16-0.011 0.144-0.015 0.271-0.078 0.368-0.171l-0 0c0.014-0.013 0.033-0.021 0.053-0.021h0zM23.621 26.512c0 0.139-0.027 0.277-0.075 0.405-0.048 0.117-0.117 0.229-0.208 0.32-0.091 0.085-0.203 0.16-0.32 0.203-0.125 0.047-0.268 0.074-0.419 0.074s-0.294-0.027-0.427-0.076l0.008 0.003c-0.245-0.095-0.436-0.284-0.531-0.522l-0.002-0.006c-0.046-0.12-0.073-0.26-0.073-0.405s0.027-0.285 0.076-0.413l-0.003 0.008c0.053-0.117 0.117-0.229 0.213-0.32 0.091-0.085 0.197-0.16 0.32-0.203 0.267-0.096 0.565-0.096 0.832 0 0.243 0.095 0.433 0.282 0.531 0.516l0.002 0.006c0.053 0.133 0.075 0.267 0.075 0.411zM23.333 26.512c0-0.107-0.016-0.219-0.053-0.325-0.061-0.185-0.199-0.329-0.374-0.398l-0.004-0.002c-0.090-0.034-0.195-0.054-0.304-0.054s-0.214 0.020-0.31 0.056l0.006-0.002c-0.18 0.071-0.318 0.215-0.377 0.395l-0.001 0.005c-0.069 0.213-0.069 0.437 0 0.651 0.062 0.183 0.2 0.325 0.374 0.393l0.004 0.002c0.197 0.075 0.411 0.075 0.608 0 0.177-0.071 0.312-0.213 0.372-0.39l0.001-0.005c0.043-0.107 0.059-0.213 0.053-0.32zM25.781 26.853l0.027 0.075 0.032-0.075 0.037-0.069 0.704-1.216c0.011-0.021 0.021-0.032 0.037-0.037 0.013-0.004 0.028-0.006 0.043-0.006 0.003 0 0.007 0 0.010 0l-0-0h0.213v1.973h-0.245v-1.579l-0.709 1.227c-0.008 0.020-0.021 0.036-0.037 0.048l-0 0c-0.017 0.010-0.037 0.016-0.059 0.016-0.002 0-0.003-0-0.005-0h-0.037c-0 0-0.001 0-0.001 0-0.021 0-0.041-0.006-0.058-0.016l0 0c-0.019-0.011-0.033-0.028-0.042-0.047l-0-0.001-0.725-1.237v1.584h-0.24v-1.973h0.213l0.053 0.011c0.016 0.011 0.032 0.021 0.037 0.037l0.715 1.216c0.013 0.020 0.026 0.043 0.036 0.067l0.001 0.003zM28.421 26.757v0.741h-0.277v-1.973h0.613c0.117 0 0.229 0.011 0.341 0.043 0.091 0.021 0.171 0.064 0.24 0.123 0.064 0.053 0.107 0.117 0.139 0.192 0.032 0.080 0.048 0.165 0.048 0.256 0 0.085-0.016 0.171-0.053 0.251-0.032 0.075-0.080 0.144-0.149 0.197s-0.149 0.107-0.24 0.128c-0.095 0.030-0.204 0.048-0.317 0.048-0.005 0-0.010-0-0.015-0h0.001l-0.331-0.005zM28.421 26.544h0.331c0.069 0 0.144-0.011 0.213-0.027 0.053-0.021 0.107-0.053 0.155-0.085 0.039-0.036 0.070-0.081 0.090-0.131l0.001-0.002c0.021-0.053 0.032-0.107 0.032-0.165 0-0.006 0.001-0.014 0.001-0.021 0-0.108-0.048-0.206-0.123-0.272l-0-0c-0.107-0.080-0.235-0.117-0.373-0.107h-0.325v0.811zM32.107 27.499h-0.213c-0.003 0-0.007 0.001-0.010 0.001-0.020 0-0.039-0.006-0.054-0.017l0 0c-0.016-0.013-0.029-0.029-0.037-0.047l-0-0.001-0.187-0.48h-0.933l-0.192 0.48c-0.009 0.018-0.021 0.032-0.037 0.042l-0 0c-0.016 0.013-0.036 0.021-0.059 0.021h-0.219l0.821-1.973h0.288l0.832 1.973zM30.747 26.768h0.773l-0.32-0.805c-0.022-0.051-0.044-0.113-0.062-0.177l-0.002-0.010-0.032 0.107-0.352 0.88zM33.291 25.536c0.016 0.005 0.032 0.016 0.043 0.032l1.2 1.493v-1.536h0.245v1.973h-0.139c-0.016 0-0.037 0-0.053-0.011s-0.031-0.022-0.042-0.037l-0-0-1.2-1.488v1.536h-0.245v-1.973h0.144c0.016 0 0.032 0 0.053 0.011zM36.8 26.715v0.784h-0.272v-0.784l-0.757-1.189h0.245c0.021 0 0.043 0 0.053 0.016l0.043 0.043 0.475 0.768c0.028 0.049 0.055 0.107 0.077 0.168l0.003 0.009 0.037-0.085 0.048-0.091 0.464-0.773c0.011-0.014 0.023-0.026 0.037-0.037l0-0c0.015-0.013 0.035-0.021 0.056-0.021 0.001 0 0.002 0 0.002 0h0.251l-0.763 1.195zM25.648 22.208l0.357 0.037c1.865-0.798 3.397-2.074 4.484-3.676l0.023-0.036c1.003-1.481 1.602-3.308 1.602-5.274 0-0.066-0.001-0.132-0.002-0.197l0 0.010-2.043-1.947c0.416 2.059 0.219 4.181-0.56 6.144-0.829 2.019-2.155 3.692-3.829 4.916l-0.032 0.022z"></path>
<path d="M24.917 22.117l0.053 0.011c1.826-1.244 3.236-2.978 4.054-5.014l0.026-0.074c0.449-1.12 0.709-2.418 0.709-3.777 0-0.932-0.122-1.836-0.352-2.695l0.017 0.073-2.901-2.763c0.913 1.72 1.449 3.76 1.449 5.926 0 3.179-1.155 6.089-3.069 8.332l0.015-0.018zM34.773 15.355c-0.537 2.212-1.748 4.086-3.401 5.442l-0.018 0.014c-0.507 0.416-1.051 0.789-1.627 1.109 1.461-0.414 2.726-1.114 3.787-2.042l-0.011 0.010c1.051-0.918 1.883-2.060 2.426-3.353l0.022-0.060-1.179-1.12z"></path>
<path d="M34.309 15.040l-1.68-1.6c-0.037 1.921-0.619 3.699-1.596 5.195l0.023-0.038c-1.025 1.567-2.413 2.817-4.047 3.652l-0.059 0.028h0.011c0.373 0 0.747-0.016 1.12-0.059 1.615-0.633 2.978-1.603 4.054-2.831l0.010-0.012c1.042-1.191 1.8-2.656 2.154-4.272l0.012-0.064zM25.163 6.709l-2.005-1.909c-1.811 0.671-3.313 1.821-4.398 3.296l-0.018 0.026c-1.039 1.418-1.666 3.195-1.675 5.118v0.002c0.014 2.123 0.777 4.064 2.038 5.577l-0.011-0.014c1.31 1.571 3.090 2.708 5.124 3.197l0.065 0.013c1.835-2.133 2.912-4.763 3.067-7.52 0.012-0.208 0.019-0.451 0.019-0.695 0-2.651-0.825-5.11-2.233-7.132l0.027 0.041zM38.933 14.747c-0.020-2.517-1.086-4.78-2.785-6.38l-0.005-0.004c-1.744-1.649-4.104-2.663-6.7-2.663-1.219 0-2.387 0.224-3.463 0.632l0.067-0.022 12.245 11.675c0.421-1.035 0.64-2.133 0.635-3.237z"></path>
</symbol>
<symbol id="icon-companyTagLine" viewBox="0 0 57 32">
<path d="M28.661 15.12c-0.192-0.276-0.307-0.618-0.307-0.987 0-0.037 0.001-0.075 0.003-0.111l-0 0.005v-1.6c0-0.485 0.101-0.853 0.304-1.109s0.544-0.379 1.040-0.379c0.459 0 0.789 0.107 0.981 0.32 0.213 0.277 0.315 0.613 0.288 0.955v0.373h-0.821v-0.373c0-0.128-0.005-0.251-0.027-0.373-0.012-0.089-0.055-0.167-0.117-0.224l-0-0c-0.073-0.054-0.165-0.087-0.265-0.087-0.012 0-0.024 0-0.035 0.001l0.002-0c-0.012-0.001-0.025-0.002-0.039-0.002-0.106 0-0.204 0.035-0.282 0.093l0.001-0.001c-0.068 0.063-0.116 0.148-0.133 0.243l-0 0.003c-0.021 0.128-0.032 0.261-0.032 0.389v1.931c-0.002 0.022-0.003 0.048-0.003 0.074 0 0.171 0.040 0.333 0.112 0.476l-0.003-0.006c0.043 0.053 0.096 0.107 0.16 0.133 0.069 0.027 0.144 0.037 0.213 0.027 0.107 0.011 0.213-0.021 0.299-0.085 0.064-0.064 0.107-0.144 0.123-0.235 0.016-0.128 0.027-0.256 0.027-0.384v-0.395h0.821v0.357c0.027 0.357-0.075 0.704-0.283 1.003-0.192 0.235-0.512 0.352-0.987 0.352-0.48 0-0.837-0.128-1.040-0.389zM32.101 15.136c-0.213-0.245-0.32-0.608-0.32-1.083v-1.68c0-0.475 0.107-0.832 0.32-1.072 0.208-0.245 0.555-0.363 1.045-0.363 0.48 0 0.832 0.123 1.040 0.363s0.315 0.597 0.315 1.072v1.675c0 0.469-0.107 0.832-0.32 1.083s-0.555 0.373-1.035 0.373c-0.48 0-0.837-0.128-1.045-0.373zM33.531 14.736c0.075-0.155 0.107-0.32 0.096-0.496v-2.048c0.011-0.165-0.021-0.331-0.096-0.48-0.041-0.060-0.097-0.108-0.163-0.138l-0.002-0.001c-0.047-0.020-0.101-0.031-0.158-0.031-0.021 0-0.042 0.002-0.063 0.005l0.002-0c-0.018-0.003-0.038-0.004-0.059-0.004-0.057 0-0.112 0.011-0.162 0.032l0.003-0.001c-0.070 0.029-0.127 0.075-0.17 0.132l-0.001 0.001c-0.075 0.155-0.107 0.32-0.101 0.485v2.059c-0.011 0.171 0.027 0.341 0.101 0.496 0.094 0.102 0.228 0.165 0.377 0.165 0.003 0 0.005-0 0.008-0h-0c0.001 0 0.002 0 0.003 0 0.152 0 0.289-0.063 0.386-0.165l0-0v-0.011zM35.493 10.992h0.891l0.667 3.088 0.683-3.088h0.864l0.091 4.459h-0.64l-0.069-3.099-0.661 3.093h-0.512l-0.683-3.104-0.064 3.109h-0.645l0.080-4.459zM39.68 10.992h1.387c0.8 0 1.2 0.427 1.2 1.264 0 0.811-0.427 1.211-1.264 1.211h-0.469v1.984h-0.853v-4.464zM40.864 12.896c0.024 0.003 0.051 0.005 0.078 0.005 0.151 0 0.29-0.054 0.397-0.144l-0.001 0.001c0.096-0.149 0.139-0.331 0.123-0.507 0-0.133-0.011-0.267-0.043-0.4-0.025-0.094-0.087-0.169-0.169-0.212l-0.002-0.001c-0.117-0.053-0.251-0.080-0.384-0.075h-0.331v1.333h0.331zM43.499 10.992h0.917l0.939 4.459h-0.8l-0.181-1.029h-0.821l-0.187 1.029h-0.811l0.944-4.459zM44.283 13.904l-0.32-1.867-0.32 1.867h0.64zM46.117 10.992h0.597l1.147 2.544v-2.549h0.709v4.459h-0.571l-1.152-2.656v2.656h-0.731v-4.459zM50.229 13.749l-0.949-2.752h0.8l0.587 1.771 0.533-1.771h0.784l-0.939 2.752v1.701h-0.821v-1.701zM29.979 17.397v0.235h-0.693v1.813h-0.293v-1.813h-0.704v-0.235h1.691zM32.165 19.44h-0.224c-0.001 0-0.002 0-0.004 0-0.023 0-0.044-0.008-0.061-0.022l0 0c-0.016-0.011-0.029-0.025-0.037-0.042l-0-0.001-0.203-0.485h-0.965l-0.203 0.48c-0.006 0.023-0.017 0.043-0.032 0.059l0-0c-0.016 0.013-0.036 0.021-0.059 0.021h-0.229l0.853-2.048h0.299l0.864 2.037zM30.752 18.683h0.805l-0.341-0.832c-0.022-0.051-0.044-0.115-0.061-0.181l-0.003-0.011-0.032 0.107-0.027 0.085-0.341 0.832zM33.643 19.237h0.16c0.094-0.007 0.181-0.028 0.262-0.061l-0.006 0.002 0.117-0.053v-0.459h-0.341c-0.002 0-0.004 0-0.005 0-0.016 0-0.031-0.006-0.043-0.016l0 0c-0.010-0.009-0.016-0.022-0.016-0.036 0-0.001 0-0.001 0-0.002v0-0.16h0.661v0.789c-0.161 0.11-0.355 0.185-0.565 0.207l-0.006 0c-0.085 0.011-0.165 0.011-0.251 0.011-0.149 0-0.293-0.021-0.427-0.075-0.133-0.048-0.251-0.123-0.347-0.213-0.185-0.18-0.299-0.43-0.299-0.708 0-0.014 0-0.027 0.001-0.041l-0 0.002c0-0.144 0.027-0.293 0.075-0.427 0.104-0.251 0.307-0.443 0.559-0.531l0.007-0.002c0.144-0.053 0.299-0.080 0.459-0.080 0.157 0.003 0.307 0.028 0.448 0.072l-0.011-0.003c0.124 0.043 0.23 0.107 0.321 0.187l-0.001-0.001-0.080 0.128c-0.007 0.011-0.016 0.020-0.026 0.026l-0 0c-0.011 0.007-0.025 0.011-0.040 0.011-0.001 0-0.002-0-0.003-0h0c-0.020-0.001-0.038-0.006-0.054-0.016l0 0-0.080-0.048c-0.139-0.078-0.305-0.124-0.481-0.124-0.122 0-0.239 0.022-0.347 0.062l0.007-0.002c-0.096 0.037-0.181 0.096-0.251 0.16-0.069 0.080-0.123 0.16-0.16 0.261-0.075 0.219-0.075 0.459 0 0.677 0.11 0.274 0.373 0.463 0.68 0.463 0.029 0 0.058-0.002 0.086-0.005l-0.003 0zM36.368 19.205h0.933v0.235h-1.221v-2.043h0.293l-0.005 1.813zM38.272 19.44h-0.293v-2.043h0.293v2.043zM39.36 17.408c0.016 0.005 0.027 0.021 0.043 0.037l1.248 1.541v-1.6h0.256v2.053h-0.149c-0.021 0-0.043 0-0.064-0.011-0.017-0.010-0.031-0.023-0.042-0.037l-0-0-1.248-1.541v1.589h-0.245v-2.043h0.149c0.021 0 0.037 0 0.053 0.011zM43.056 17.397v0.224h-1.029v0.677h0.837v0.213h-0.837v0.699h1.035v0.224h-1.333v-2.037h1.333zM12.427 4.773l12.981 3.493v12.224l-12.981-3.488v-12.229zM11.595 3.733v13.867l14.645 3.931v-13.861l-14.645-3.936z"></path>
<path d="M19.445 27.968l-14.645-3.941v-13.861l14.645 3.941v13.861z"></path>
<path d="M11.84 4.619l12.811 3.445-5.451 5.157-12.811-3.445 5.451-5.157zM11.595 3.733l-6.795 6.432 14.645 3.941 6.795-6.437-14.645-3.936zM20.267 27.189l5.973-5.653-5.973-1.611v7.264z"></path>
</symbol>
<symbol id="icon-diagram" viewBox="0 0 32 32">
<path d="M14.926 14.967h1.065v4.795h-1.065v-4.8zM19.191 17.097h1.065v2.665h-1.065v-2.665zM10.661 18.697h1.065v1.065h-1.065v-1.065zM7.461 18.162h1.070v1.6h-1.070v-1.6z"></path>
<path d="M1.6 28.293h25.586c0.884 0 1.6-0.716 1.6-1.6v0-2.135c0-0.884-0.716-1.6-1.6-1.6v0h-0.535v-13.285l3.031-2.871c0.207 0.104 0.45 0.164 0.708 0.164 0.889 0 1.609-0.72 1.609-1.609s-0.72-1.609-1.609-1.609c-0.889 0-1.609 0.72-1.609 1.609 0 0.247 0.056 0.482 0.156 0.691l-0.004-0.010-2.281 2.162v-1.23c0-0.884-0.716-1.6-1.6-1.6v0h-21.321c-0.884 0-1.6 0.716-1.6 1.6v0 15.995h-0.53c-0.884 0-1.6 0.716-1.6 1.6v0 2.13c0 0.884 0.716 1.6 1.6 1.6v0zM30.386 4.837c0.015-0.001 0.032-0.002 0.049-0.002 0.295 0 0.535 0.239 0.535 0.535s-0.239 0.535-0.535 0.535c-0.017 0-0.035-0.001-0.052-0.002l0.002 0c-0.273-0.026-0.485-0.255-0.485-0.533s0.212-0.506 0.483-0.532l0.002-0zM3.2 6.967c0-0.293 0.238-0.53 0.53-0.53h21.321c0.297 0 0.535 0.238 0.535 0.53v2.24l-1.065 1.015v-2.185c0-0.297-0.238-0.535-0.535-0.535h-19.186c-0.293 0-0.53 0.238-0.53 0.535v13.326c0 0.293 0.238 0.53 0.53 0.53h19.191c0.297 0 0.535-0.238 0.535-0.53v-9.673l1.065-1.010v12.283h-22.391v-15.995zM8 13.897c-0.004-0-0.009-0-0.013-0-0.884 0-1.6 0.716-1.6 1.6s0.716 1.6 1.6 1.6c0.434 0 0.827-0.173 1.115-0.453l-0 0 1.856 0.933c0.215 0.105 0.475 0.055 0.635-0.123l3.936-4.434 3.872 2.903c0.21 0.155 0.503 0.137 0.686-0.037l3.369-3.191v8.137h-18.126v-12.27h18.126v2.661l-3.771 3.57-3.904-2.926c-0.088-0.067-0.2-0.107-0.322-0.107-0.159 0-0.302 0.070-0.4 0.18l-0 0.001-3.991 4.494-1.495-0.75c0.014-0.064 0.018-0.128 0.023-0.192 0-0.884-0.716-1.6-1.6-1.6v0zM8.53 15.497c0 0.295-0.239 0.535-0.535 0.535s-0.535-0.239-0.535-0.535v0c0-0.295 0.239-0.535 0.535-0.535s0.535 0.239 0.535 0.535v0zM11.73 24.027h5.321v0.53c0 0.297-0.238 0.535-0.53 0.535h-4.265c-0.293 0-0.535-0.238-0.535-0.535v-0.53zM1.061 24.558c0-0.293 0.238-0.53 0.535-0.53h9.061v0.53c0 0.884 0.716 1.6 1.6 1.6v0h4.265c0.884 0 1.6-0.716 1.6-1.6v0-0.53h9.061c0.293 0 0.53 0.238 0.53 0.53v2.135c0 0.293-0.238 0.53-0.53 0.53h-25.582c-0.297 0-0.535-0.238-0.535-0.53v-2.135z"></path>
</symbol>
<symbol id="icon-facebook" viewBox="0 0 32 32">
<path d="M21.328 5.312h2.928v-5.088c-0.512-0.064-2.24-0.224-4.256-0.224-4.224 0-7.104 2.656-7.104 7.52v4.48h-4.64v5.68h4.64v14.32h5.696v-14.304h4.464l0.704-5.696h-5.168v-3.92c0-1.648 0.448-2.768 2.736-2.768z"></path>
</symbol>
<symbol id="icon-foster" viewBox="0 0 32 32">
<path d="M15.644 2.951c-0.053-0.001-0.116-0.001-0.179-0.001-7.891 0-14.299 6.347-14.399 14.214l-0 0.009c0 7.822 6.542 14.187 14.578 14.187s14.578-6.4 14.578-14.222-6.542-14.187-14.578-14.187z"></path>
</symbol>
<symbol id="icon-instagram" viewBox="0 0 32 32">
<path d="M31.968 9.408c-0.024-1.403-0.292-2.735-0.763-3.968l0.027 0.080c-0.427-1.109-1.058-2.054-1.854-2.83l-0.002-0.002c-0.8-0.8-1.76-1.44-2.832-1.84-1.151-0.448-2.483-0.721-3.875-0.752l-0.013-0c-1.458-0.070-3.167-0.109-4.885-0.109-0.6 0-1.199 0.005-1.797 0.014l0.090-0.001c-4.352 0-4.896 0.016-6.592 0.096-1.712 0.064-2.88 0.352-3.888 0.736-1.072 0.416-2.032 1.040-2.832 1.856-0.816 0.8-1.44 1.76-1.856 2.832-0.443 1.152-0.711 2.485-0.736 3.877l-0 0.011c-0.070 1.458-0.109 3.167-0.109 4.885 0 0.6 0.005 1.199 0.014 1.797l-0.001-0.090c0 4.352 0 4.896 0.080 6.592 0.030 1.405 0.303 2.737 0.779 3.968l-0.027-0.080c0.4 1.072 1.040 2.032 1.856 2.832 0.8 0.816 1.76 1.44 2.832 1.856 1.008 0.384 2.176 0.656 3.872 0.736 1.712 0.080 2.24 0.096 6.592 0.096s4.896-0.016 6.608-0.096c1.397-0.026 2.724-0.294 3.952-0.763l-0.080 0.027c2.16-0.851 3.837-2.528 4.669-4.633l0.019-0.055c0.384-1.024 0.672-2.176 0.736-3.888 0.080-1.696 0.096-2.24 0.096-6.592 0-4.336 0-4.88-0.080-6.592zM29.088 22.48c-0.064 1.552-0.32 2.4-0.544 2.96-0.552 1.401-1.639 2.488-3.004 3.027l-0.036 0.013c-0.56 0.224-1.424 0.48-2.976 0.544-1.68 0.080-2.192 0.096-6.464 0.096-0.465 0.007-1.013 0.011-1.562 0.011-1.724 0-3.439-0.039-5.144-0.116l0.242 0.009c-1.568-0.064-2.4-0.32-2.96-0.544-0.722-0.271-1.337-0.68-1.839-1.199l-0.001-0.001c-0.518-0.5-0.926-1.108-1.189-1.79l-0.011-0.034c-0.336-0.884-0.535-1.905-0.544-2.972l-0-0.004c-0.068-1.463-0.107-3.179-0.107-4.903 0-0.549 0.004-1.097 0.012-1.643l-0.001 0.083c0-4.272 0.016-4.784 0.096-6.464 0.064-1.568 0.32-2.4 0.544-2.976 0.256-0.688 0.656-1.312 1.2-1.824 0.504-0.519 1.118-0.928 1.806-1.189l0.034-0.011c0.56-0.224 1.408-0.48 2.976-0.544 1.68-0.080 2.192-0.096 6.448-0.096 4.288 0 4.8 0 6.464 0.096 1.568 0.064 2.4 0.32 2.976 0.544 0.688 0.256 1.328 0.656 1.84 1.2 0.528 0.512 0.944 1.136 1.2 1.824 0.208 0.576 0.48 1.424 0.544 2.976 0.080 1.68 0.096 2.192 0.096 6.464s-0.016 4.768-0.096 6.464z"></path>
<path d="M16.064 7.776c-4.542 0-8.224 3.682-8.224 8.224s3.682 8.224 8.224 8.224v0c4.542 0 8.224-3.682 8.224-8.224s-3.682-8.224-8.224-8.224v0zM16.064 21.328c-2.943 0-5.328-2.385-5.328-5.328s2.385-5.328 5.328-5.328v0c2.943 0 5.328 2.385 5.328 5.328s-2.385 5.328-5.328 5.328v0zM26.528 7.456c0 1.060-0.86 1.92-1.92 1.92s-1.92-0.86-1.92-1.92v0c0-1.060 0.86-1.92 1.92-1.92s1.92 0.86 1.92 1.92v0z"></path>
</symbol>
<symbol id="icon-linkedin" viewBox="0 0 32 32">
<path d="M32 32v-11.744c0-5.728-1.232-10.16-7.952-10.16-0.076-0.003-0.166-0.005-0.256-0.005-2.555 0-4.788 1.376-5.999 3.428l-0.018 0.032h-0.096v-2.912h-6.368v21.36h6.64v-10.576c0-2.784 0.528-5.488 3.968-5.488 3.408 0 3.456 3.184 3.456 5.664v10.4h6.624zM0.528 10.64h6.64v21.36h-6.64v-21.36zM3.84 0c-2.121 0-3.84 1.719-3.84 3.84v0c-0 0.005-0 0.010-0 0.016 0 2.127 1.715 3.854 3.838 3.872h0.002c2.128 0 3.84-1.76 3.84-3.888 0-2.121-1.719-3.84-3.84-3.84v0z"></path>
</symbol>
<symbol id="icon-menu" viewBox="0 0 32 32">
<path d="M6.4 11.736v-2.136h19.2v2.136h-19.2zM6.4 17.064h19.2v-2.128h-19.2v2.128zM6.4 22.4h19.2v-2.136h-19.2v2.136z"></path>
</symbol>
<symbol id="icon-twitter" viewBox="0 0 32 32">
<path d="M32 6.080c-1.184 0.528-2.464 0.864-3.776 1.040 1.36-0.816 2.4-2.080 2.88-3.632-1.28 0.752-2.672 1.28-4.16 1.6-1.202-1.298-2.915-2.107-4.817-2.107-3.623 0-6.56 2.937-6.56 6.56 0 0.538 0.065 1.060 0.187 1.56l-0.009-0.045c-5.462-0.281-10.265-2.883-13.477-6.83l-0.027-0.034c-0.558 0.949-0.887 2.089-0.887 3.307 0 2.26 1.134 4.255 2.865 5.446l0.022 0.014c-1.040 0-2.080-0.32-2.96-0.8v0.064c0 3.2 2.272 5.84 5.264 6.448-0.518 0.147-1.113 0.232-1.728 0.232-0.442 0-0.873-0.044-1.29-0.127l0.042 0.007c0.878 2.623 3.284 4.493 6.136 4.56l0.008 0c-2.221 1.763-5.066 2.828-8.159 2.828-0.547 0-1.087-0.033-1.617-0.098l0.064 0.006c2.826 1.846 6.286 2.944 10.003 2.944 0.022 0 0.043-0 0.065-0h-0.003c12.080 0 18.672-10 18.672-18.672 0-0.288 0-0.576-0.032-0.848 1.312-0.928 2.4-2.080 3.296-3.408z"></path>
</symbol>
<symbol id="icon-yaco" viewBox="0 0 56 32">
<path d="M19.934 4.045l3.672 3.483-6.82-0.005v16.887h17.836v-6.458l3.672 3.478v-17.39h-18.361zM34.466 17.542l-10.429-9.862h10.429v9.862zM31.224 21.938h-11.614v-11.357h0.824v10.586h10.791v0.771zM22.353 26.66l-0.43 0.881-0.43-0.887h-0.357l0.63 1.18v0.682h0.32v-0.682l0.63-1.18h-0.367zM22.893 28.522l0.147-0.435h0.724l0.157 0.435h0.336l-0.708-1.868h-0.289l-0.708 1.868h0.341zM23.402 27.053l0.273 0.771h-0.54l0.268-0.771zM25.112 27.782c-0.043 0.065-0.068 0.144-0.068 0.229 0 0.002 0 0.005 0 0.007v-0c0 0.157 0.052 0.283 0.163 0.383 0.11 0.094 0.262 0.147 0.446 0.147s0.341-0.052 0.472-0.152l0.105 0.126h0.367l-0.278-0.325c0.105-0.147 0.157-0.336 0.157-0.567h-0.262c0 0.126-0.031 0.241-0.084 0.341l-0.357-0.42 0.126-0.094c0.089-0.068 0.157-0.131 0.194-0.194 0.037-0.061 0.059-0.134 0.059-0.212 0-0.119-0.051-0.227-0.133-0.302l-0-0c-0.083-0.075-0.194-0.121-0.316-0.121-0.005 0-0.011 0-0.016 0l0.001-0c-0.008-0-0.017-0.001-0.026-0.001-0.13 0-0.248 0.050-0.336 0.132l0-0c-0.081 0.082-0.132 0.196-0.132 0.321 0 0.009 0 0.018 0.001 0.027l-0-0.001c0 0.058 0.016 0.121 0.042 0.184s0.079 0.142 0.152 0.236c-0.108 0.071-0.2 0.156-0.276 0.254l-0.002 0.003zM25.951 28.191c-0.080 0.065-0.182 0.104-0.294 0.105h-0c-0.005 0-0.010 0-0.016 0-0.079 0-0.151-0.030-0.205-0.079l0 0c-0.052-0.051-0.084-0.121-0.084-0.199 0-0.004 0-0.007 0-0.011l-0 0.001c0-0.105 0.052-0.189 0.157-0.268l0.037-0.026 0.404 0.477zM25.621 27.368c-0.089-0.105-0.131-0.199-0.131-0.273 0-0.063 0.016-0.115 0.052-0.157 0.034-0.036 0.081-0.058 0.134-0.058 0.003 0 0.006 0 0.008 0h-0c0.058 0 0.105 0.016 0.142 0.052 0.037 0.031 0.052 0.073 0.052 0.126 0 0.073-0.026 0.131-0.079 0.178l-0.037 0.031-0.142 0.1zM28.653 28.38c0.131-0.11 0.205-0.268 0.22-0.467h-0.32c-0.016 0.131-0.058 0.231-0.121 0.283-0.068 0.058-0.157 0.089-0.289 0.089-0.005 0-0.010 0-0.016 0-0.124 0-0.233-0.062-0.298-0.157l-0.001-0.001c-0.073-0.105-0.11-0.262-0.11-0.462v-0.168c0-0.199 0.037-0.351 0.115-0.451 0.073-0.105 0.184-0.157 0.325-0.157 0.121 0 0.21 0.031 0.273 0.089 0.063 0.063 0.105 0.157 0.121 0.294h0.32c-0.009-0.186-0.090-0.352-0.215-0.472l-0-0c-0.125-0.108-0.289-0.174-0.469-0.174-0.011 0-0.021 0-0.031 0.001l0.001-0c-0.007-0-0.016-0-0.025-0-0.287 0-0.534 0.171-0.645 0.416l-0.002 0.004c-0.063 0.136-0.094 0.289-0.094 0.467v0.173c0 0.173 0.031 0.32 0.094 0.451s0.147 0.231 0.262 0.304c0.115 0.068 0.247 0.105 0.393 0.105 0.21 0 0.383-0.058 0.509-0.168zM30.557 28.118c0.063-0.136 0.094-0.299 0.094-0.483v-0.105c0-0.178-0.031-0.341-0.094-0.472-0.112-0.256-0.363-0.431-0.655-0.431-0.009 0-0.019 0-0.028 0.001l0.001-0c-0.005-0-0.011-0-0.017-0-0.294 0-0.548 0.175-0.663 0.426l-0.002 0.005c-0.052 0.142-0.089 0.304-0.089 0.483v0.105c0 0.178 0.037 0.336 0.1 0.472s0.157 0.241 0.273 0.315c0.121 0.079 0.257 0.115 0.404 0.115 0.157 0 0.289-0.037 0.409-0.11 0.115-0.079 0.21-0.184 0.268-0.32zM30.211 27.069c0.079 0.105 0.121 0.262 0.121 0.472v0.094c0 0.21-0.042 0.367-0.121 0.483-0.069 0.096-0.181 0.158-0.307 0.158-0.008 0-0.016-0-0.024-0.001l0.001 0c-0.004 0-0.009 0-0.014 0-0.13 0-0.245-0.064-0.315-0.162l-0.001-0.001c-0.076-0.122-0.122-0.27-0.122-0.428 0-0.015 0-0.031 0.001-0.046l-0 0.002v-0.11c0-0.205 0.042-0.357 0.121-0.467 0.070-0.099 0.184-0.163 0.314-0.163 0.006 0 0.012 0 0.018 0l-0.001-0c0.142 0 0.252 0.052 0.331 0.163z"></path>
</symbol>
</defs>
</svg>
